<mxfile host="app.diagrams.net" agent="Mozilla/5.0 (Windows NT 10.0; Win64; x64) AppleWebKit/537.36 (KHTML, like Gecko) Chrome/135.0.0.0 Safari/537.36" version="26.2.9">
  <diagram id="C5RBs43oDa-KdzZeNtuy" name="Page-1">
    <mxGraphModel dx="1044" dy="562" grid="1" gridSize="10" guides="1" tooltips="1" connect="1" arrows="1" fold="1" page="1" pageScale="1" pageWidth="827" pageHeight="1169" math="0" shadow="0">
      <root>
        <mxCell id="WIyWlLk6GJQsqaUBKTNV-0" />
        <mxCell id="WIyWlLk6GJQsqaUBKTNV-1" parent="WIyWlLk6GJQsqaUBKTNV-0" />
        <mxCell id="UahNbTHtgwHtrqWUHoNG-0" value="" style="edgeStyle=orthogonalEdgeStyle;rounded=0;orthogonalLoop=1;jettySize=auto;html=1;" edge="1" parent="WIyWlLk6GJQsqaUBKTNV-1" source="UahNbTHtgwHtrqWUHoNG-1" target="UahNbTHtgwHtrqWUHoNG-3">
          <mxGeometry relative="1" as="geometry" />
        </mxCell>
        <mxCell id="UahNbTHtgwHtrqWUHoNG-1" value="INICIO" style="strokeWidth=2;html=1;shape=mxgraph.flowchart.start_1;whiteSpace=wrap;fillColor=#d5e8d4;strokeColor=#82b366;" vertex="1" parent="WIyWlLk6GJQsqaUBKTNV-1">
          <mxGeometry x="360" y="290" width="100" height="60" as="geometry" />
        </mxCell>
        <mxCell id="UahNbTHtgwHtrqWUHoNG-2" value="" style="edgeStyle=orthogonalEdgeStyle;rounded=0;orthogonalLoop=1;jettySize=auto;html=1;" edge="1" parent="WIyWlLk6GJQsqaUBKTNV-1" source="UahNbTHtgwHtrqWUHoNG-3" target="UahNbTHtgwHtrqWUHoNG-4">
          <mxGeometry relative="1" as="geometry" />
        </mxCell>
        <mxCell id="UahNbTHtgwHtrqWUHoNG-3" value="SEGUNDOS = 0&lt;div&gt;MINUTOS = 0&lt;/div&gt;&lt;div&gt;HORAS = 0&lt;/div&gt;" style="whiteSpace=wrap;html=1;fillColor=#f5f5f5;strokeColor=#666666;strokeWidth=2;fontColor=#333333;" vertex="1" parent="WIyWlLk6GJQsqaUBKTNV-1">
          <mxGeometry x="350" y="400" width="120" height="60" as="geometry" />
        </mxCell>
        <mxCell id="UahNbTHtgwHtrqWUHoNG-7" value="" style="edgeStyle=orthogonalEdgeStyle;rounded=0;orthogonalLoop=1;jettySize=auto;html=1;" edge="1" parent="WIyWlLk6GJQsqaUBKTNV-1" source="UahNbTHtgwHtrqWUHoNG-4" target="UahNbTHtgwHtrqWUHoNG-6">
          <mxGeometry relative="1" as="geometry" />
        </mxCell>
        <mxCell id="UahNbTHtgwHtrqWUHoNG-4" value="SEGUNDOS-CRONOMETRADOS" style="html=1;strokeWidth=2;shape=manualInput;whiteSpace=wrap;rounded=1;size=26;arcSize=11;fillColor=#dae8fc;strokeColor=#6c8ebf;" vertex="1" parent="WIyWlLk6GJQsqaUBKTNV-1">
          <mxGeometry x="340" y="519" width="140" height="65.5" as="geometry" />
        </mxCell>
        <mxCell id="UahNbTHtgwHtrqWUHoNG-10" value="" style="edgeStyle=orthogonalEdgeStyle;rounded=0;orthogonalLoop=1;jettySize=auto;html=1;" edge="1" parent="WIyWlLk6GJQsqaUBKTNV-1" source="UahNbTHtgwHtrqWUHoNG-6" target="UahNbTHtgwHtrqWUHoNG-9">
          <mxGeometry relative="1" as="geometry" />
        </mxCell>
        <mxCell id="UahNbTHtgwHtrqWUHoNG-6" value="MINUTOS = SEGUNDOS-CRONOMETRADOS // 60" style="whiteSpace=wrap;html=1;fillColor=#f5f5f5;strokeColor=#666666;strokeWidth=2;fontColor=#333333;" vertex="1" parent="WIyWlLk6GJQsqaUBKTNV-1">
          <mxGeometry x="257.5" y="640" width="305" height="60" as="geometry" />
        </mxCell>
        <mxCell id="UahNbTHtgwHtrqWUHoNG-12" value="" style="edgeStyle=orthogonalEdgeStyle;rounded=0;orthogonalLoop=1;jettySize=auto;html=1;" edge="1" parent="WIyWlLk6GJQsqaUBKTNV-1" source="UahNbTHtgwHtrqWUHoNG-9" target="UahNbTHtgwHtrqWUHoNG-11">
          <mxGeometry relative="1" as="geometry" />
        </mxCell>
        <mxCell id="UahNbTHtgwHtrqWUHoNG-9" value="HORAS = SEGUNDOS-CRONOMETRADOS // 3600" style="whiteSpace=wrap;html=1;fillColor=#f5f5f5;strokeColor=#666666;strokeWidth=2;fontColor=#333333;" vertex="1" parent="WIyWlLk6GJQsqaUBKTNV-1">
          <mxGeometry x="262.5" y="760" width="295" height="60" as="geometry" />
        </mxCell>
        <mxCell id="UahNbTHtgwHtrqWUHoNG-14" value="" style="edgeStyle=orthogonalEdgeStyle;rounded=0;orthogonalLoop=1;jettySize=auto;html=1;" edge="1" parent="WIyWlLk6GJQsqaUBKTNV-1" source="UahNbTHtgwHtrqWUHoNG-11" target="UahNbTHtgwHtrqWUHoNG-13">
          <mxGeometry relative="1" as="geometry" />
        </mxCell>
        <mxCell id="UahNbTHtgwHtrqWUHoNG-11" value="SEGUNDOS = SEGUNDOS-CORNOMETRADOS % 60" style="whiteSpace=wrap;html=1;fillColor=#f5f5f5;strokeColor=#666666;strokeWidth=2;fontColor=#333333;" vertex="1" parent="WIyWlLk6GJQsqaUBKTNV-1">
          <mxGeometry x="256.25" y="880" width="307.5" height="60" as="geometry" />
        </mxCell>
        <mxCell id="UahNbTHtgwHtrqWUHoNG-13" value="FIM" style="strokeWidth=2;html=1;shape=mxgraph.flowchart.start_1;whiteSpace=wrap;fillColor=#d5e8d4;strokeColor=#82b366;" vertex="1" parent="WIyWlLk6GJQsqaUBKTNV-1">
          <mxGeometry x="360" y="980" width="100" height="60" as="geometry" />
        </mxCell>
      </root>
    </mxGraphModel>
  </diagram>
</mxfile>
